<?xml version="1.0" encoding="iso-8859-1"?>
<!-- Uploaded to: SVG Repo, www.svgrepo.com, Generator: SVG Repo Mixer Tools -->
<svg fill="#000000" height="800px" width="800px" version="1.1" id="Layer_1" xmlns="http://www.w3.org/2000/svg" xmlns:xlink="http://www.w3.org/1999/xlink" 
	 viewBox="0 0 511.999 511.999" xml:space="preserve">
<g>
	<g>
		<path d="M210.12,242.559c-6.688-6.689-17.533-6.689-24.221-0.001l-49.206,49.206c-6.689,6.688-6.689,17.532,0,24.221
			c6.688,6.689,17.532,6.688,24.221,0l49.206-49.206C216.809,260.091,216.809,249.246,210.12,242.559z"/>
	</g>
</g>
<g>
	<g>
		<path d="M144.28,136.21h-22.481v-0.772c-0.002-7.807,26.512-13.9,26.512-32.519c0-11.497-10.04-17.763-19.993-17.763
			c-9.781,0-19.391,6.007-19.391,16.474c0,5.406,2.573,6.952,6.006,6.952c4.376,0,7.037-2.404,7.037-4.892
			c0-4.719,3.003-6.436,6.436-6.436c4.805,0,6.52,3.347,6.52,6.092c0,10.897-27.028,18.62-27.028,32.091v8.323
			c0,2.488,3.433,4.119,5.835,4.119h30.547c2.145,0,4.033-2.832,4.033-5.92C148.313,138.871,146.425,136.21,144.28,136.21z"/>
	</g>
</g>
<g>
	<g>
		<path d="M188.639,136.21h-22.481v-0.772c-0.002-7.807,26.512-13.9,26.512-32.519c0-11.497-10.04-17.763-19.993-17.763
			c-9.781,0-19.391,6.007-19.391,16.474c0,5.406,2.573,6.952,6.006,6.952c4.376,0,7.037-2.404,7.037-4.892
			c0-4.719,3.003-6.436,6.436-6.436c4.805,0,6.52,3.347,6.52,6.092c0,10.897-27.028,18.62-27.028,32.091v8.323
			c0,2.488,3.433,4.119,5.835,4.119h30.547c2.145,0,4.034-2.832,4.034-5.92C192.673,138.871,190.784,136.21,188.639,136.21z"/>
	</g>
</g>
<g>
	<g>
		<path d="M219.009,85.157c-11.841,0-21.022,5.491-21.022,20.25v22.738c0,14.76,9.181,20.252,21.022,20.252
			s21.109-5.491,21.109-20.252v-22.74C240.117,90.649,230.849,85.157,219.009,85.157z M226.73,128.145
			c0,5.922-2.917,8.581-7.722,8.581s-7.637-2.66-7.637-8.581v-22.738c0-5.92,2.832-8.58,7.637-8.58s7.722,2.66,7.722,8.58V128.145z"
			/>
	</g>
</g>
<g>
	<g>
		<path d="M473.362,77.169V66.561c0-9.185-7.446-16.631-16.631-16.631c-9.184,0-16.63,7.446-16.63,16.631v10.608
			c-9.938,5.752-16.631,16.492-16.631,28.801v66.072c0,12.309,6.692,23.049,16.631,28.801v240.859
			c0,20.423-16.615,37.038-37.038,37.038H217.034c-20.423,0-37.038-16.615-37.038-37.038V406.65h47.449v6.364
			c0,19.192,15.614,34.805,34.805,34.805h97.541c19.192,0,34.805-15.614,34.805-34.805V200.84
			c9.938-5.752,16.631-16.492,16.631-28.801v-66.071c0-12.309-6.692-23.049-16.631-28.801V66.56c0-9.185-7.446-16.631-16.63-16.631
			c-9.185,0-16.631,7.446-16.631,16.631v10.608c-9.938,5.752-16.631,16.492-16.631,28.801v66.072
			c0,12.309,6.692,23.049,16.631,28.801v212.174c0,0.852-0.693,1.544-1.544,1.544c-104.298,0-99.085,0.707-99.085-1.544v-6.364
			h16.703c26.133,0,47.395-21.262,47.395-47.395V47.396C324.803,21.262,303.543,0,277.409,0H69.404
			C43.269,0,22.008,21.262,22.008,47.396v311.859c0,26.133,21.262,47.395,47.396,47.395h77.331v35.049
			c0,38.764,31.536,70.3,70.299,70.3h186.027c38.764,0,70.3-31.536,70.3-70.3V200.84c9.938-5.752,16.631-16.492,16.631-28.801
			v-66.071C489.992,93.66,483.3,82.921,473.362,77.169z M69.404,373.388c-7.794,0.001-14.135-6.338-14.135-14.133V47.396
			c0-7.794,6.341-14.135,14.135-14.135h208.005c7.793,0,14.134,6.341,14.134,14.135v311.859c0,7.793-6.341,14.134-14.134,14.134
			h-84.327c18.173-3.761,34.876-12.712,48.304-26.139c37.484-37.483,37.484-98.474,0-135.958
			c-12.272-12.272-27.284-20.801-43.651-25.052h48.945c19.605,0,35.555-15.951,35.555-35.555V83.567
			c0-19.606-15.951-35.555-35.555-35.555H100.133c-19.605,0-35.555,15.95-35.555,35.555v67.116
			c0,19.605,15.951,35.555,35.555,35.555h48.946c-16.367,4.251-31.378,12.78-43.651,25.052c-37.573,37.574-37.575,98.383,0,135.958
			c13.426,13.426,30.13,22.378,48.303,26.139H69.404z M100.133,152.978c-1.265,0-2.294-1.03-2.294-2.294V83.567
			c0-1.265,1.03-2.294,2.294-2.294H246.68c1.265,0,2.294,1.03,2.294,2.294v67.116c0,1.265-1.03,2.294-2.294,2.294H100.133z
			 M129.647,323.031c-24.185-24.185-24.188-63.33,0-87.519c11.689-11.688,27.23-18.125,43.758-18.125
			c16.53,0,32.071,6.437,43.759,18.125c24.129,24.129,24.129,63.389,0,87.519c-11.688,11.688-27.229,18.125-43.759,18.125
			C156.877,341.156,141.335,334.718,129.647,323.031z"/>
	</g>
</g>
</svg>