<?xml version="1.0" ?><svg height="48" id="svg4725" version="1.1" viewBox="0 0 48.000006 48" width="48.000004" xmlns="http://www.w3.org/2000/svg" xmlns:cc="http://creativecommons.org/ns#" xmlns:dc="http://purl.org/dc/elements/1.1/" xmlns:inkscape="http://www.inkscape.org/namespaces/inkscape" xmlns:rdf="http://www.w3.org/1999/02/22-rdf-syntax-ns#" xmlns:sodipodi="http://sodipodi.sourceforge.net/DTD/sodipodi-0.dtd" xmlns:svg="http://www.w3.org/2000/svg"><defs id="defs4727"/><g id="layer2"><g id="text4816" style="font-style:normal;font-variant:normal;font-weight:normal;font-stretch:normal;font-size:10px;line-height:125%;font-family:'Arial Rounded MT Bold';-inkscape-font-specification:'Arial Rounded MT Bold, Normal';text-align:start;letter-spacing:0px;word-spacing:0px;writing-mode:lr-tb;text-anchor:start;fill:#fd4398;fill-opacity:1;stroke:none;stroke-width:1px;stroke-linecap:butt;stroke-linejoin:miter;stroke-opacity:1"><path d="m 19.274677,26.172565 -0.299072,-0.786132 -2.546387,0 -0.299072,0.803222 q -0.175171,0.469971 -0.299072,0.636597 -0.123902,0.162353 -0.405884,0.162353 -0.239258,0 -0.422974,-0.17517 -0.183715,-0.175171 -0.183715,-0.397339 0,-0.128174 0.04272,-0.264893 0.04273,-0.136719 0.140991,-0.380249 l 1.602173,-4.067383 q 0.06836,-0.175171 0.162354,-0.418701 0.09827,-0.247803 0.205078,-0.410156 0.111084,-0.162354 0.286255,-0.26062 0.179443,-0.102539 0.440063,-0.102539 0.264893,0 0.440064,0.102539 0.179443,0.09827 0.286255,0.256347 0.111084,0.158081 0.183715,0.341797 0.07691,0.179444 0.192261,0.482788 l 1.636353,4.041748 q 0.19226,0.461426 0.19226,0.670777 0,0.217895 -0.183715,0.401611 -0.179444,0.179443 -0.435791,0.179443 -0.149537,0 -0.256348,-0.05554 -0.106812,-0.05127 -0.179443,-0.140992 -0.07263,-0.09399 -0.158082,-0.281982 -0.08118,-0.192261 -0.140991,-0.337525 z m -2.512207,-1.738891 1.871338,0 -0.944214,-2.584839 -0.927124,2.584839 z" id="path4321" style="font-size:8.75px"/><path d="m 24.230732,26.881794 -1.914063,0 q -0.414428,0 -0.593872,-0.183716 -0.175171,-0.187988 -0.175171,-0.593872 l 0,-4.708252 q 0,-0.414429 0.179444,-0.593872 0.183716,-0.183716 0.589599,-0.183716 l 2.029419,0 q 0.448609,0 0.777588,0.05554 0.32898,0.05554 0.5896,0.213623 0.222168,0.132447 0.393066,0.337525 0.170899,0.200805 0.26062,0.448608 0.08972,0.24353 0.08972,0.516968 0,0.939941 -0.939941,1.375732 1.234741,0.393067 1.234741,1.529541 0,0.525513 -0.269165,0.948487 -0.269165,0.418701 -0.726318,0.619506 -0.286255,0.119629 -0.657959,0.170899 -0.371705,0.047 -0.86731,0.047 z m -0.09399,-2.781372 -1.320191,0 0,1.828613 1.362915,0 q 1.286011,0 1.286011,-0.927124 0,-0.474243 -0.333252,-0.687866 -0.333252,-0.213623 -0.995483,-0.213623 z m -1.320191,-2.529297 0,1.619263 1.16211,0 q 0.474243,0 0.730591,-0.08972 0.26062,-0.08972 0.397338,-0.341797 0.106812,-0.179443 0.106812,-0.401611 0,-0.474243 -0.337524,-0.628052 -0.337525,-0.158081 -1.029664,-0.158081 l -1.029663,0 z" id="path4323" style="font-size:8.75px"/><path d="m 33.181538,24.903645 q 0,0.299072 -0.149537,0.649414 -0.145263,0.346069 -0.461425,0.683593 -0.316162,0.333252 -0.807495,0.542603 -0.491333,0.20935 -1.14502,0.20935 -0.495605,0 -0.901489,-0.09399 -0.405884,-0.09399 -0.739136,-0.290527 -0.328979,-0.200806 -0.606689,-0.525513 -0.247803,-0.294799 -0.422974,-0.657959 -0.175171,-0.367431 -0.264893,-0.78186 -0.08545,-0.414429 -0.08545,-0.880127 0,-0.756226 0.217896,-1.35437 0.222168,-0.598145 0.632324,-1.021118 0.410156,-0.427246 0.961304,-0.649414 0.551147,-0.222168 1.174926,-0.222168 0.760498,0 1.35437,0.303344 0.593873,0.303345 0.910035,0.751954 0.316162,0.444336 0.316162,0.841674 0,0.217896 -0.153809,0.384522 -0.153808,0.166626 -0.371704,0.166626 -0.24353,0 -0.367432,-0.115357 -0.119628,-0.115356 -0.269165,-0.397338 -0.247802,-0.465699 -0.585327,-0.696412 -0.333252,-0.230713 -0.824585,-0.230713 -0.78186,0 -1.247558,0.593873 -0.461426,0.593872 -0.461426,1.687622 0,0.73059 0.205078,1.217651 0.205078,0.482788 0.581055,0.722046 0.375976,0.239258 0.880127,0.239258 0.546875,0 0.922851,-0.269165 0.380249,-0.273438 0.57251,-0.798951 0.08118,-0.247802 0.200806,-0.401611 0.119629,-0.158081 0.384521,-0.158081 0.226441,0 0.388794,0.158081 0.162354,0.158081 0.162354,0.393067 z" id="path4325" style="font-size:8.75px"/></g><g id="g4751" transform="translate(-218.25002,41.75419)"><rect height="27.008232" id="rect4754" rx="2" ry="2" style="color:#000000;clip-rule:nonzero;display:inline;overflow:visible;visibility:visible;opacity:1;isolation:auto;mix-blend-mode:normal;color-interpolation:sRGB;color-interpolation-filters:linearRGB;solid-color:#000000;solid-opacity:1;fill:none;fill-opacity:1;fill-rule:nonzero;stroke:#fd4398;stroke-width:0.99999994;stroke-linecap:round;stroke-linejoin:miter;stroke-miterlimit:4;stroke-dasharray:none;stroke-dashoffset:0;stroke-opacity:1;color-rendering:auto;image-rendering:auto;shape-rendering:auto;text-rendering:auto;enable-background:accumulate" width="27.000051" x="228.75" y="-31.254116"/><path d="m 248.49209,-4.2530052 0,-3.6271757 7.25084,0" id="path4756" style="color:#000000;clip-rule:nonzero;display:inline;overflow:visible;visibility:visible;opacity:1;isolation:auto;mix-blend-mode:normal;color-interpolation:sRGB;color-interpolation-filters:linearRGB;solid-color:#000000;solid-opacity:1;fill:none;fill-opacity:1;fill-rule:nonzero;stroke:#fd4499;stroke-width:1;stroke-linecap:round;stroke-linejoin:round;stroke-miterlimit:4;stroke-dasharray:none;stroke-dashoffset:0;stroke-opacity:1;color-rendering:auto;image-rendering:auto;shape-rendering:auto;text-rendering:auto;enable-background:accumulate"/></g></g></svg>