<?xml version="1.0" ?><svg height="48" id="svg4725" version="1.1" viewBox="0 0 48.000006 48" width="48.000004" xmlns="http://www.w3.org/2000/svg" xmlns:cc="http://creativecommons.org/ns#" xmlns:dc="http://purl.org/dc/elements/1.1/" xmlns:inkscape="http://www.inkscape.org/namespaces/inkscape" xmlns:rdf="http://www.w3.org/1999/02/22-rdf-syntax-ns#" xmlns:sodipodi="http://sodipodi.sourceforge.net/DTD/sodipodi-0.dtd" xmlns:svg="http://www.w3.org/2000/svg"><defs id="defs4727"/><g id="layer3"><g id="g4747" style="display:inline;opacity:1;enable-background:new" transform="matrix(1,0,0,1.0029488,-601.99997,234.49622)"><path d="m 644.50002,-196.41694 -18.64309,0 c -1.40585,0 -2.53763,-1.15705 -2.53763,-2.59428 l 0,-9.97136 c 0,-1.43723 1.13178,-2.59428 2.53763,-2.59428 l 13.42605,0 c 1.40585,0 2.53763,0.30207 2.53763,1.7393 l 0,9.30633 z" id="rect4922" style="color:#000000;clip-rule:nonzero;display:inline;overflow:visible;visibility:visible;opacity:1;isolation:auto;mix-blend-mode:normal;color-interpolation:sRGB;color-interpolation-filters:linearRGB;solid-color:#000000;solid-opacity:1;fill:none;fill-opacity:1;fill-rule:nonzero;stroke:#fd4398;stroke-width:0.99852884;stroke-linecap:round;stroke-linejoin:round;stroke-miterlimit:4;stroke-dasharray:none;stroke-dashoffset:0;stroke-opacity:1;color-rendering:auto;image-rendering:auto;shape-rendering:auto;text-rendering:auto;enable-background:accumulate"/><path d="m 607.49994,-208.17764 18.64308,0 c 1.40585,0 2.53764,-1.15705 2.53764,-2.59428 l 0,-9.97136 c 0,-1.43723 -1.13179,-2.59428 -2.53764,-2.59428 l -13.42604,0 c -1.40585,0 -2.53764,0.30207 -2.53764,1.7393 l 0,9.30633 z" id="path4781" style="color:#000000;clip-rule:nonzero;display:inline;overflow:visible;visibility:visible;opacity:1;isolation:auto;mix-blend-mode:normal;color-interpolation:sRGB;color-interpolation-filters:linearRGB;solid-color:#000000;solid-opacity:1;fill:none;fill-opacity:1;fill-rule:nonzero;stroke:#fd4398;stroke-width:0.99852884;stroke-linecap:round;stroke-linejoin:round;stroke-miterlimit:4;stroke-dasharray:none;stroke-dashoffset:0;stroke-opacity:1;color-rendering:auto;image-rendering:auto;shape-rendering:auto;text-rendering:auto;enable-background:accumulate"/></g></g></svg>